# xmcd
#
# Track frame offsets: 
#        150
#        19105
#        40259
#        63741
#        81368
#        97186
#        116087
#        140680
#        154558
#        167795
#        185091
#        194092
#
# Disc length: 2900 seconds
#
# Revision: 0
# Processed by: cddbd v1.5.2PL0 Copyright (c) Steve Scherf et al.
# Submitted via: ExactAudioCopy v0.95b4
#
DISCID=b30b520c
DTITLE=Edgar Breau - Canadian Primitive
DYEAR=1900
DGENRE=Bluegrass
TTITLE0=Precincts
TTITLE1=Lorraine
TTITLE2=I Miss You, My Nico
TTITLE3=Slow Train
TTITLE4=Ha'naker Mill
TTITLE5=Mad River
TTITLE6=Handsome Sailor
TTITLE7=Rockin' Chair
TTITLE8=Pony Ride
TTITLE9=King of China's Daughter
TTITLE10=Canadian Primitive
TTITLE11=Hiding Place
EXTD=
EXTT0=
EXTT1=
EXTT2=
EXTT3=
EXTT4=
EXTT5=
EXTT6=
EXTT7=
EXTT8=
EXTT9=
EXTT10=
EXTT11=
PLAYORDER=
